<mxfile host="app.diagrams.net" modified="2020-12-10T16:07:12.528Z" agent="5.0 (Windows NT 10.0; Win64; x64) AppleWebKit/537.36 (KHTML, like Gecko) Chrome/87.0.4280.88 Safari/537.36" etag="2B4mmtK0-8Jzd15xp5v9" version="14.0.0" type="github">
  <diagram id="ws7nKE4xc8i0Fiy0wKz8" name="Page-1">
    <mxGraphModel dx="1635" dy="803" grid="1" gridSize="10" guides="1" tooltips="1" connect="1" arrows="1" fold="1" page="1" pageScale="1" pageWidth="827" pageHeight="1169" math="0" shadow="0">
      <root>
        <mxCell id="0" />
        <mxCell id="1" parent="0" />
        <mxCell id="Mdx0Rw6exQIBVTAZ7aJu-1" value="" style="endArrow=none;html=1;strokeWidth=2;" parent="1" edge="1">
          <mxGeometry width="50" height="50" relative="1" as="geometry">
            <mxPoint x="3" y="80" as="sourcePoint" />
            <mxPoint x="823" y="80" as="targetPoint" />
          </mxGeometry>
        </mxCell>
        <mxCell id="Mdx0Rw6exQIBVTAZ7aJu-2" value="&lt;font style=&quot;font-size: 30px&quot;&gt;Universal Robot UR5e Platform Operation Flowchart&lt;/font&gt;" style="text;html=1;strokeColor=none;fillColor=none;align=center;verticalAlign=middle;whiteSpace=wrap;rounded=0;" parent="1" vertex="1">
          <mxGeometry x="20" width="780" height="80" as="geometry" />
        </mxCell>
        <mxCell id="Mdx0Rw6exQIBVTAZ7aJu-136" style="edgeStyle=orthogonalEdgeStyle;rounded=0;orthogonalLoop=1;jettySize=auto;html=1;exitX=0.5;exitY=1;exitDx=0;exitDy=0;entryX=0.5;entryY=0;entryDx=0;entryDy=0;strokeWidth=2;fontSize=18;align=center;" parent="1" source="Mdx0Rw6exQIBVTAZ7aJu-3" target="Mdx0Rw6exQIBVTAZ7aJu-59" edge="1">
          <mxGeometry relative="1" as="geometry" />
        </mxCell>
        <mxCell id="Mdx0Rw6exQIBVTAZ7aJu-3" value="&lt;div&gt;&lt;span&gt;Initialize and Start loop&lt;/span&gt;&lt;/div&gt;" style="ellipse;whiteSpace=wrap;html=1;fontSize=18;strokeWidth=2;align=center;fillColor=#ffcccc;strokeColor=#36393d;" parent="1" vertex="1">
          <mxGeometry x="50" y="125" width="130" height="60" as="geometry" />
        </mxCell>
        <mxCell id="Mdx0Rw6exQIBVTAZ7aJu-45" style="edgeStyle=orthogonalEdgeStyle;rounded=0;orthogonalLoop=1;jettySize=auto;html=1;exitX=0.5;exitY=1;exitDx=0;exitDy=0;strokeWidth=2;fontSize=18;align=center;" parent="1" source="Mdx0Rw6exQIBVTAZ7aJu-24" target="Mdx0Rw6exQIBVTAZ7aJu-26" edge="1">
          <mxGeometry relative="1" as="geometry" />
        </mxCell>
        <mxCell id="Mdx0Rw6exQIBVTAZ7aJu-24" value="&lt;font style=&quot;font-size: 18px&quot;&gt;Take and place Voyager to PGN gripper holder (M1)&lt;br style=&quot;font-size: 18px&quot;&gt;&lt;/font&gt;" style="rounded=1;whiteSpace=wrap;html=1;fontSize=18;strokeWidth=2;align=center;fillColor=#cce5ff;strokeColor=#36393d;" parent="1" vertex="1">
          <mxGeometry x="50" y="315" width="130" height="90" as="geometry" />
        </mxCell>
        <mxCell id="Mdx0Rw6exQIBVTAZ7aJu-111" style="edgeStyle=orthogonalEdgeStyle;rounded=0;orthogonalLoop=1;jettySize=auto;html=1;exitX=0.5;exitY=1;exitDx=0;exitDy=0;entryX=0.5;entryY=0;entryDx=0;entryDy=0;strokeWidth=2;fontSize=18;align=center;" parent="1" source="Mdx0Rw6exQIBVTAZ7aJu-26" target="Mdx0Rw6exQIBVTAZ7aJu-28" edge="1">
          <mxGeometry relative="1" as="geometry" />
        </mxCell>
        <mxCell id="Mdx0Rw6exQIBVTAZ7aJu-26" value="&lt;font style=&quot;font-size: 18px&quot;&gt;Change digital output to close PGN gripper (DO1)&lt;br style=&quot;font-size: 18px&quot;&gt;&lt;/font&gt;" style="rounded=1;whiteSpace=wrap;html=1;fontSize=18;strokeWidth=2;align=center;fillColor=#d5e8d4;strokeColor=#82b366;" parent="1" vertex="1">
          <mxGeometry x="50" y="445" width="130" height="90" as="geometry" />
        </mxCell>
        <mxCell id="Mdx0Rw6exQIBVTAZ7aJu-48" style="edgeStyle=orthogonalEdgeStyle;rounded=0;orthogonalLoop=1;jettySize=auto;html=1;exitX=0.5;exitY=1;exitDx=0;exitDy=0;entryX=0.5;entryY=0;entryDx=0;entryDy=0;strokeWidth=2;fontSize=18;align=center;" parent="1" source="Mdx0Rw6exQIBVTAZ7aJu-28" target="Mdx0Rw6exQIBVTAZ7aJu-47" edge="1">
          <mxGeometry relative="1" as="geometry" />
        </mxCell>
        <mxCell id="Mdx0Rw6exQIBVTAZ7aJu-28" value="&lt;font style=&quot;font-size: 18px&quot;&gt;Take stick (M2)&lt;br style=&quot;font-size: 18px&quot;&gt;&lt;/font&gt;" style="rounded=1;whiteSpace=wrap;html=1;fontSize=18;strokeWidth=2;align=center;fillColor=#cce5ff;strokeColor=#36393d;" parent="1" vertex="1">
          <mxGeometry x="50" y="575" width="130" height="40" as="geometry" />
        </mxCell>
        <mxCell id="Mdx0Rw6exQIBVTAZ7aJu-51" style="edgeStyle=orthogonalEdgeStyle;rounded=0;orthogonalLoop=1;jettySize=auto;html=1;exitX=0.5;exitY=1;exitDx=0;exitDy=0;strokeWidth=2;fontSize=18;align=center;" parent="1" source="Mdx0Rw6exQIBVTAZ7aJu-32" target="Mdx0Rw6exQIBVTAZ7aJu-34" edge="1">
          <mxGeometry relative="1" as="geometry" />
        </mxCell>
        <mxCell id="Mdx0Rw6exQIBVTAZ7aJu-32" value="&lt;font style=&quot;font-size: 18px&quot;&gt;Request client software to record (C1)&lt;br style=&quot;font-size: 18px&quot;&gt;&lt;/font&gt;" style="rounded=1;whiteSpace=wrap;html=1;fontSize=18;strokeWidth=2;align=center;fillColor=#e1d5e7;strokeColor=#9673a6;" parent="1" vertex="1">
          <mxGeometry x="50" y="865" width="130" height="70" as="geometry" />
        </mxCell>
        <mxCell id="Mdx0Rw6exQIBVTAZ7aJu-52" style="edgeStyle=orthogonalEdgeStyle;rounded=0;orthogonalLoop=1;jettySize=auto;html=1;exitX=0.5;exitY=1;exitDx=0;exitDy=0;strokeWidth=2;fontSize=18;align=center;" parent="1" source="Mdx0Rw6exQIBVTAZ7aJu-34" target="Mdx0Rw6exQIBVTAZ7aJu-36" edge="1">
          <mxGeometry relative="1" as="geometry" />
        </mxCell>
        <mxCell id="Mdx0Rw6exQIBVTAZ7aJu-34" value="&lt;font style=&quot;font-size: 18px&quot;&gt;Start Insertion Test (M4)&lt;br style=&quot;font-size: 18px&quot;&gt;&lt;/font&gt;" style="rounded=1;whiteSpace=wrap;html=1;fontSize=18;strokeWidth=2;align=center;fillColor=#cce5ff;strokeColor=#36393d;" parent="1" vertex="1">
          <mxGeometry x="50" y="975" width="130" height="50" as="geometry" />
        </mxCell>
        <mxCell id="Mdx0Rw6exQIBVTAZ7aJu-165" style="edgeStyle=orthogonalEdgeStyle;rounded=0;orthogonalLoop=1;jettySize=auto;html=1;exitX=1;exitY=0.5;exitDx=0;exitDy=0;entryX=0;entryY=0.5;entryDx=0;entryDy=0;endArrow=classic;endFill=1;strokeWidth=2;fontSize=18;align=center;" parent="1" source="Mdx0Rw6exQIBVTAZ7aJu-36" target="Mdx0Rw6exQIBVTAZ7aJu-63" edge="1">
          <mxGeometry relative="1" as="geometry" />
        </mxCell>
        <mxCell id="Mdx0Rw6exQIBVTAZ7aJu-36" value="&lt;font style=&quot;font-size: 18px&quot;&gt;Request client software to stop (C2)&lt;br style=&quot;font-size: 18px&quot;&gt;&lt;/font&gt;" style="rounded=1;whiteSpace=wrap;html=1;fontSize=18;strokeWidth=2;align=center;fillColor=#e1d5e7;strokeColor=#9673a6;" parent="1" vertex="1">
          <mxGeometry x="50" y="1065" width="130" height="70" as="geometry" />
        </mxCell>
        <mxCell id="Mdx0Rw6exQIBVTAZ7aJu-113" style="edgeStyle=orthogonalEdgeStyle;rounded=0;orthogonalLoop=1;jettySize=auto;html=1;exitX=0.5;exitY=1;exitDx=0;exitDy=0;entryX=0.5;entryY=0;entryDx=0;entryDy=0;strokeWidth=2;fontSize=18;align=center;" parent="1" source="Mdx0Rw6exQIBVTAZ7aJu-47" target="Mdx0Rw6exQIBVTAZ7aJu-112" edge="1">
          <mxGeometry relative="1" as="geometry" />
        </mxCell>
        <mxCell id="Mdx0Rw6exQIBVTAZ7aJu-149" style="edgeStyle=orthogonalEdgeStyle;rounded=0;orthogonalLoop=1;jettySize=auto;html=1;exitX=1;exitY=0.5;exitDx=0;exitDy=0;dashed=1;dashPattern=1 2;endArrow=none;endFill=0;strokeWidth=2;fontSize=18;align=center;" parent="1" source="Mdx0Rw6exQIBVTAZ7aJu-47" edge="1">
          <mxGeometry relative="1" as="geometry">
            <mxPoint x="420" y="1150" as="targetPoint" />
            <Array as="points">
              <mxPoint x="220" y="695" />
              <mxPoint x="220" y="1150" />
              <mxPoint x="410" y="1150" />
            </Array>
          </mxGeometry>
        </mxCell>
        <mxCell id="Mdx0Rw6exQIBVTAZ7aJu-47" value="Inspect &lt;br&gt;(E1)" style="rhombus;whiteSpace=wrap;html=1;strokeWidth=2;fontSize=18;align=center;verticalAlign=middle;fillColor=#fff2cc;strokeColor=#d6b656;" parent="1" vertex="1">
          <mxGeometry x="50" y="655" width="130" height="80" as="geometry" />
        </mxCell>
        <mxCell id="Mdx0Rw6exQIBVTAZ7aJu-50" value="no error" style="text;html=1;strokeColor=none;fillColor=none;align=left;verticalAlign=middle;whiteSpace=wrap;rounded=0;fontSize=18;" parent="1" vertex="1">
          <mxGeometry x="120" y="735" width="70" height="30" as="geometry" />
        </mxCell>
        <mxCell id="Mdx0Rw6exQIBVTAZ7aJu-62" style="edgeStyle=orthogonalEdgeStyle;rounded=0;orthogonalLoop=1;jettySize=auto;html=1;exitX=0.5;exitY=1;exitDx=0;exitDy=0;strokeWidth=2;fontSize=18;align=center;" parent="1" source="Mdx0Rw6exQIBVTAZ7aJu-59" target="Mdx0Rw6exQIBVTAZ7aJu-24" edge="1">
          <mxGeometry relative="1" as="geometry" />
        </mxCell>
        <mxCell id="Mdx0Rw6exQIBVTAZ7aJu-59" value="&lt;font style=&quot;font-size: 18px&quot;&gt;Prepare parameters&lt;br style=&quot;font-size: 18px&quot;&gt;&lt;/font&gt;" style="rounded=1;whiteSpace=wrap;html=1;fontSize=18;strokeWidth=2;align=center;fillColor=#fad7ac;strokeColor=#b46504;" parent="1" vertex="1">
          <mxGeometry x="50" y="225" width="130" height="50" as="geometry" />
        </mxCell>
        <mxCell id="Mdx0Rw6exQIBVTAZ7aJu-66" style="edgeStyle=orthogonalEdgeStyle;rounded=0;orthogonalLoop=1;jettySize=auto;html=1;exitX=0.5;exitY=0;exitDx=0;exitDy=0;entryX=0.5;entryY=1;entryDx=0;entryDy=0;strokeWidth=2;fontSize=18;align=center;" parent="1" source="Mdx0Rw6exQIBVTAZ7aJu-63" target="Mdx0Rw6exQIBVTAZ7aJu-65" edge="1">
          <mxGeometry relative="1" as="geometry" />
        </mxCell>
        <mxCell id="Mdx0Rw6exQIBVTAZ7aJu-63" value="&lt;font style=&quot;font-size: 18px&quot;&gt;Take Voyager with stick (M5)&lt;br style=&quot;font-size: 18px&quot;&gt;&lt;/font&gt;" style="rounded=1;whiteSpace=wrap;html=1;fontSize=18;strokeWidth=2;align=center;fillColor=#cce5ff;strokeColor=#36393d;" parent="1" vertex="1">
          <mxGeometry x="250" y="1075" width="130" height="50" as="geometry" />
        </mxCell>
        <mxCell id="Mdx0Rw6exQIBVTAZ7aJu-76" style="edgeStyle=orthogonalEdgeStyle;rounded=0;orthogonalLoop=1;jettySize=auto;html=1;exitX=0.5;exitY=0;exitDx=0;exitDy=0;entryX=0.5;entryY=1;entryDx=0;entryDy=0;strokeWidth=2;fontSize=18;align=center;" parent="1" source="Mdx0Rw6exQIBVTAZ7aJu-65" target="Mdx0Rw6exQIBVTAZ7aJu-69" edge="1">
          <mxGeometry relative="1" as="geometry" />
        </mxCell>
        <mxCell id="Mdx0Rw6exQIBVTAZ7aJu-65" value="&lt;font style=&quot;font-size: 18px&quot;&gt;Change digital output to open PGN gripper (DO2)&lt;br style=&quot;font-size: 18px&quot;&gt;&lt;/font&gt;" style="rounded=1;whiteSpace=wrap;html=1;fontSize=18;strokeWidth=2;align=center;fillColor=#d5e8d4;strokeColor=#82b366;" parent="1" vertex="1">
          <mxGeometry x="250" y="940" width="130" height="90" as="geometry" />
        </mxCell>
        <mxCell id="Mdx0Rw6exQIBVTAZ7aJu-72" style="edgeStyle=orthogonalEdgeStyle;rounded=0;orthogonalLoop=1;jettySize=auto;html=1;exitX=0.5;exitY=0;exitDx=0;exitDy=0;entryX=0.5;entryY=1;entryDx=0;entryDy=0;strokeWidth=2;fontSize=18;align=center;" parent="1" source="Mdx0Rw6exQIBVTAZ7aJu-69" target="Mdx0Rw6exQIBVTAZ7aJu-71" edge="1">
          <mxGeometry relative="1" as="geometry" />
        </mxCell>
        <mxCell id="Mdx0Rw6exQIBVTAZ7aJu-148" style="edgeStyle=orthogonalEdgeStyle;rounded=0;orthogonalLoop=1;jettySize=auto;html=1;exitX=1;exitY=0.5;exitDx=0;exitDy=0;entryX=0;entryY=0.5;entryDx=0;entryDy=0;endArrow=open;endFill=0;strokeWidth=2;fontSize=18;align=center;dashed=1;dashPattern=1 2;" parent="1" source="Mdx0Rw6exQIBVTAZ7aJu-69" target="Mdx0Rw6exQIBVTAZ7aJu-147" edge="1">
          <mxGeometry relative="1" as="geometry">
            <Array as="points">
              <mxPoint x="420" y="860" />
              <mxPoint x="420" y="1150" />
              <mxPoint x="610" y="1150" />
              <mxPoint x="610" y="280" />
            </Array>
          </mxGeometry>
        </mxCell>
        <mxCell id="Mdx0Rw6exQIBVTAZ7aJu-69" value="Inspect &lt;br&gt;(E2)" style="rhombus;whiteSpace=wrap;html=1;strokeWidth=2;fontSize=18;align=center;verticalAlign=middle;fillColor=#fff2cc;strokeColor=#d6b656;" parent="1" vertex="1">
          <mxGeometry x="250" y="820" width="130" height="80" as="geometry" />
        </mxCell>
        <mxCell id="yO3iKfEKuUUZXNcsltwW-5" style="edgeStyle=orthogonalEdgeStyle;rounded=0;orthogonalLoop=1;jettySize=auto;html=1;exitX=0.5;exitY=0;exitDx=0;exitDy=0;entryX=0.5;entryY=1;entryDx=0;entryDy=0;strokeWidth=2;" edge="1" parent="1" source="Mdx0Rw6exQIBVTAZ7aJu-71" target="yO3iKfEKuUUZXNcsltwW-4">
          <mxGeometry relative="1" as="geometry" />
        </mxCell>
        <mxCell id="Mdx0Rw6exQIBVTAZ7aJu-71" value="&lt;font style=&quot;font-size: 18px&quot;&gt;Prepare Voyager with stick for PDSP Test (M6)&lt;br style=&quot;font-size: 18px&quot;&gt;&lt;/font&gt;" style="rounded=1;whiteSpace=wrap;html=1;fontSize=18;strokeWidth=2;align=center;fillColor=#cce5ff;strokeColor=#36393d;" parent="1" vertex="1">
          <mxGeometry x="250" y="690" width="130" height="90" as="geometry" />
        </mxCell>
        <mxCell id="Mdx0Rw6exQIBVTAZ7aJu-73" value="no error" style="text;html=1;strokeColor=none;fillColor=none;align=left;verticalAlign=middle;whiteSpace=wrap;rounded=0;fontSize=18;" parent="1" vertex="1">
          <mxGeometry x="320" y="790" width="70" height="30" as="geometry" />
        </mxCell>
        <mxCell id="yO3iKfEKuUUZXNcsltwW-15" style="edgeStyle=orthogonalEdgeStyle;rounded=0;orthogonalLoop=1;jettySize=auto;html=1;exitX=0.5;exitY=0;exitDx=0;exitDy=0;entryX=0.5;entryY=1;entryDx=0;entryDy=0;strokeWidth=2;" edge="1" parent="1" source="Mdx0Rw6exQIBVTAZ7aJu-89" target="yO3iKfEKuUUZXNcsltwW-14">
          <mxGeometry relative="1" as="geometry" />
        </mxCell>
        <mxCell id="Mdx0Rw6exQIBVTAZ7aJu-89" value="&lt;font style=&quot;font-size: 18px&quot;&gt;Vision feedback system to adjust Voyager (F1)&lt;br style=&quot;font-size: 18px&quot;&gt;&lt;/font&gt;" style="rounded=1;whiteSpace=wrap;html=1;fontSize=18;strokeWidth=2;align=center;fillColor=#b0e3e6;strokeColor=#0e8088;" parent="1" vertex="1">
          <mxGeometry x="250" y="445" width="130" height="95" as="geometry" />
        </mxCell>
        <mxCell id="yO3iKfEKuUUZXNcsltwW-13" style="edgeStyle=orthogonalEdgeStyle;rounded=0;orthogonalLoop=1;jettySize=auto;html=1;exitX=0.5;exitY=1;exitDx=0;exitDy=0;entryX=0.5;entryY=0;entryDx=0;entryDy=0;strokeWidth=2;" edge="1" parent="1" source="Mdx0Rw6exQIBVTAZ7aJu-94" target="Mdx0Rw6exQIBVTAZ7aJu-97">
          <mxGeometry relative="1" as="geometry" />
        </mxCell>
        <mxCell id="Mdx0Rw6exQIBVTAZ7aJu-94" value="&lt;font style=&quot;font-size: 18px&quot;&gt;Change digital output to start PDSP Test (DO3)&lt;br style=&quot;font-size: 18px&quot;&gt;&lt;/font&gt;" style="rounded=1;whiteSpace=wrap;html=1;fontSize=18;strokeWidth=2;align=center;fillColor=#d5e8d4;strokeColor=#82b366;" parent="1" vertex="1">
          <mxGeometry x="434" y="185" width="130" height="95" as="geometry" />
        </mxCell>
        <mxCell id="Mdx0Rw6exQIBVTAZ7aJu-104" style="edgeStyle=orthogonalEdgeStyle;rounded=0;orthogonalLoop=1;jettySize=auto;html=1;exitX=0.5;exitY=1;exitDx=0;exitDy=0;entryX=0.5;entryY=0;entryDx=0;entryDy=0;strokeWidth=2;fontSize=18;align=center;" parent="1" source="Mdx0Rw6exQIBVTAZ7aJu-97" target="Mdx0Rw6exQIBVTAZ7aJu-103" edge="1">
          <mxGeometry relative="1" as="geometry" />
        </mxCell>
        <mxCell id="Mdx0Rw6exQIBVTAZ7aJu-97" value="&lt;font style=&quot;font-size: 18px&quot;&gt;Use tweezer to take Voyager out (M8)&lt;br style=&quot;font-size: 18px&quot;&gt;&lt;/font&gt;" style="rounded=1;whiteSpace=wrap;html=1;fontSize=18;strokeWidth=2;align=center;fillColor=#cce5ff;strokeColor=#36393d;" parent="1" vertex="1">
          <mxGeometry x="434" y="325" width="130" height="70" as="geometry" />
        </mxCell>
        <mxCell id="yO3iKfEKuUUZXNcsltwW-11" style="edgeStyle=orthogonalEdgeStyle;rounded=0;orthogonalLoop=1;jettySize=auto;html=1;exitX=0.5;exitY=0;exitDx=0;exitDy=0;entryX=0.5;entryY=1;entryDx=0;entryDy=0;strokeWidth=2;" edge="1" parent="1" source="Mdx0Rw6exQIBVTAZ7aJu-99" target="yO3iKfEKuUUZXNcsltwW-10">
          <mxGeometry relative="1" as="geometry" />
        </mxCell>
        <mxCell id="Mdx0Rw6exQIBVTAZ7aJu-99" value="&lt;font style=&quot;font-size: 18px&quot;&gt;Vision feedback system to ensure start of Voyager (F2)&lt;br style=&quot;font-size: 18px&quot;&gt;&lt;/font&gt;" style="rounded=1;whiteSpace=wrap;html=1;fontSize=18;strokeWidth=2;align=center;fillColor=#b0e3e6;strokeColor=#0e8088;" parent="1" vertex="1">
          <mxGeometry x="250" y="220" width="130" height="95" as="geometry" />
        </mxCell>
        <mxCell id="Mdx0Rw6exQIBVTAZ7aJu-106" style="edgeStyle=orthogonalEdgeStyle;rounded=0;orthogonalLoop=1;jettySize=auto;html=1;exitX=0.5;exitY=1;exitDx=0;exitDy=0;entryX=0.5;entryY=0;entryDx=0;entryDy=0;strokeWidth=2;fontSize=18;align=center;" parent="1" source="Mdx0Rw6exQIBVTAZ7aJu-103" target="Mdx0Rw6exQIBVTAZ7aJu-105" edge="1">
          <mxGeometry relative="1" as="geometry" />
        </mxCell>
        <mxCell id="Mdx0Rw6exQIBVTAZ7aJu-161" style="edgeStyle=orthogonalEdgeStyle;rounded=0;orthogonalLoop=1;jettySize=auto;html=1;exitX=1;exitY=0.5;exitDx=0;exitDy=0;dashed=1;dashPattern=1 2;endArrow=none;endFill=0;strokeWidth=2;fontSize=18;align=center;" parent="1" source="Mdx0Rw6exQIBVTAZ7aJu-103" edge="1">
          <mxGeometry relative="1" as="geometry">
            <mxPoint x="610" y="475" as="targetPoint" />
          </mxGeometry>
        </mxCell>
        <mxCell id="Mdx0Rw6exQIBVTAZ7aJu-103" value="Inspect &lt;br&gt;(E3)" style="rhombus;whiteSpace=wrap;html=1;strokeWidth=2;fontSize=18;align=center;verticalAlign=middle;fillColor=#fff2cc;strokeColor=#d6b656;" parent="1" vertex="1">
          <mxGeometry x="434" y="435" width="130" height="80" as="geometry" />
        </mxCell>
        <mxCell id="Mdx0Rw6exQIBVTAZ7aJu-109" style="edgeStyle=orthogonalEdgeStyle;rounded=0;orthogonalLoop=1;jettySize=auto;html=1;exitX=0.5;exitY=1;exitDx=0;exitDy=0;entryX=0.5;entryY=0;entryDx=0;entryDy=0;strokeWidth=2;fontSize=18;align=center;" parent="1" source="Mdx0Rw6exQIBVTAZ7aJu-105" target="Mdx0Rw6exQIBVTAZ7aJu-108" edge="1">
          <mxGeometry relative="1" as="geometry" />
        </mxCell>
        <mxCell id="Mdx0Rw6exQIBVTAZ7aJu-105" value="&lt;font style=&quot;font-size: 18px&quot;&gt;Take and place Voyager to PGN gripper holder (M9)&lt;br style=&quot;font-size: 18px&quot;&gt;&lt;/font&gt;" style="rounded=1;whiteSpace=wrap;html=1;fontSize=18;strokeWidth=2;align=center;fillColor=#cce5ff;strokeColor=#36393d;" parent="1" vertex="1">
          <mxGeometry x="434" y="555" width="130" height="90" as="geometry" />
        </mxCell>
        <mxCell id="Mdx0Rw6exQIBVTAZ7aJu-107" value="no error" style="text;html=1;strokeColor=none;fillColor=none;align=left;verticalAlign=middle;whiteSpace=wrap;rounded=0;fontSize=18;" parent="1" vertex="1">
          <mxGeometry x="504" y="515" width="70" height="30" as="geometry" />
        </mxCell>
        <mxCell id="Mdx0Rw6exQIBVTAZ7aJu-119" style="edgeStyle=orthogonalEdgeStyle;rounded=0;orthogonalLoop=1;jettySize=auto;html=1;exitX=0.5;exitY=1;exitDx=0;exitDy=0;entryX=0.5;entryY=0;entryDx=0;entryDy=0;strokeWidth=2;fontSize=18;align=center;" parent="1" source="Mdx0Rw6exQIBVTAZ7aJu-108" target="Mdx0Rw6exQIBVTAZ7aJu-118" edge="1">
          <mxGeometry relative="1" as="geometry" />
        </mxCell>
        <mxCell id="Mdx0Rw6exQIBVTAZ7aJu-108" value="&lt;font style=&quot;font-size: 18px&quot;&gt;Change digital output to close PGN gripper (DO4)&lt;br style=&quot;font-size: 18px&quot;&gt;&lt;/font&gt;" style="rounded=1;whiteSpace=wrap;html=1;fontSize=18;strokeWidth=2;align=center;fillColor=#d5e8d4;strokeColor=#82b366;" parent="1" vertex="1">
          <mxGeometry x="434" y="690" width="130" height="90" as="geometry" />
        </mxCell>
        <mxCell id="Mdx0Rw6exQIBVTAZ7aJu-114" style="edgeStyle=orthogonalEdgeStyle;rounded=0;orthogonalLoop=1;jettySize=auto;html=1;exitX=0.5;exitY=1;exitDx=0;exitDy=0;entryX=0.5;entryY=0;entryDx=0;entryDy=0;strokeWidth=2;fontSize=18;align=center;" parent="1" source="Mdx0Rw6exQIBVTAZ7aJu-112" target="Mdx0Rw6exQIBVTAZ7aJu-32" edge="1">
          <mxGeometry relative="1" as="geometry" />
        </mxCell>
        <mxCell id="Mdx0Rw6exQIBVTAZ7aJu-112" value="&lt;font style=&quot;font-size: 18px&quot;&gt;Prepare stick (M3)&lt;br style=&quot;font-size: 18px&quot;&gt;&lt;/font&gt;" style="rounded=1;whiteSpace=wrap;html=1;fontSize=18;strokeWidth=2;align=center;fillColor=#cce5ff;strokeColor=#36393d;" parent="1" vertex="1">
          <mxGeometry x="50" y="775" width="130" height="50" as="geometry" />
        </mxCell>
        <mxCell id="Mdx0Rw6exQIBVTAZ7aJu-123" style="edgeStyle=orthogonalEdgeStyle;rounded=0;orthogonalLoop=1;jettySize=auto;html=1;exitX=0.5;exitY=1;exitDx=0;exitDy=0;entryX=0.5;entryY=0;entryDx=0;entryDy=0;strokeWidth=2;fontSize=18;align=center;" parent="1" source="Mdx0Rw6exQIBVTAZ7aJu-118" target="Mdx0Rw6exQIBVTAZ7aJu-122" edge="1">
          <mxGeometry relative="1" as="geometry" />
        </mxCell>
        <mxCell id="Mdx0Rw6exQIBVTAZ7aJu-118" value="&lt;font style=&quot;font-size: 18px&quot;&gt;Prepare for Extraction Test (M10)&lt;br style=&quot;font-size: 18px&quot;&gt;&lt;/font&gt;" style="rounded=1;whiteSpace=wrap;html=1;fontSize=18;strokeWidth=2;align=center;fillColor=#cce5ff;strokeColor=#36393d;" parent="1" vertex="1">
          <mxGeometry x="434" y="825" width="130" height="70" as="geometry" />
        </mxCell>
        <mxCell id="yO3iKfEKuUUZXNcsltwW-8" style="edgeStyle=orthogonalEdgeStyle;rounded=0;orthogonalLoop=1;jettySize=auto;html=1;exitX=1;exitY=0.5;exitDx=0;exitDy=0;strokeWidth=2;" edge="1" parent="1" source="Mdx0Rw6exQIBVTAZ7aJu-120" target="Mdx0Rw6exQIBVTAZ7aJu-125">
          <mxGeometry relative="1" as="geometry" />
        </mxCell>
        <mxCell id="Mdx0Rw6exQIBVTAZ7aJu-120" value="&lt;font style=&quot;font-size: 18px&quot;&gt;Start Extraction Test (M11)&lt;br style=&quot;font-size: 18px&quot;&gt;&lt;/font&gt;" style="rounded=1;whiteSpace=wrap;html=1;fontSize=18;strokeWidth=2;align=center;fillColor=#cce5ff;strokeColor=#36393d;" parent="1" vertex="1">
          <mxGeometry x="434" y="1065" width="130" height="70" as="geometry" />
        </mxCell>
        <mxCell id="Mdx0Rw6exQIBVTAZ7aJu-124" style="edgeStyle=orthogonalEdgeStyle;rounded=0;orthogonalLoop=1;jettySize=auto;html=1;exitX=0.5;exitY=1;exitDx=0;exitDy=0;entryX=0.5;entryY=0;entryDx=0;entryDy=0;strokeWidth=2;fontSize=18;align=center;" parent="1" source="Mdx0Rw6exQIBVTAZ7aJu-122" target="Mdx0Rw6exQIBVTAZ7aJu-120" edge="1">
          <mxGeometry relative="1" as="geometry" />
        </mxCell>
        <mxCell id="Mdx0Rw6exQIBVTAZ7aJu-122" value="&lt;font style=&quot;font-size: 18px&quot;&gt;Request client software to record (C3)&lt;br style=&quot;font-size: 18px&quot;&gt;&lt;/font&gt;" style="rounded=1;whiteSpace=wrap;html=1;fontSize=18;strokeWidth=2;align=center;fillColor=#e1d5e7;strokeColor=#9673a6;" parent="1" vertex="1">
          <mxGeometry x="434" y="945" width="130" height="70" as="geometry" />
        </mxCell>
        <mxCell id="yO3iKfEKuUUZXNcsltwW-7" style="edgeStyle=orthogonalEdgeStyle;rounded=0;orthogonalLoop=1;jettySize=auto;html=1;exitX=0.5;exitY=0;exitDx=0;exitDy=0;entryX=0.5;entryY=1;entryDx=0;entryDy=0;strokeWidth=2;" edge="1" parent="1" source="Mdx0Rw6exQIBVTAZ7aJu-125" target="Mdx0Rw6exQIBVTAZ7aJu-127">
          <mxGeometry relative="1" as="geometry" />
        </mxCell>
        <mxCell id="Mdx0Rw6exQIBVTAZ7aJu-125" value="&lt;font style=&quot;font-size: 18px&quot;&gt;Request client software to stop (C4)&lt;br style=&quot;font-size: 18px&quot;&gt;&lt;/font&gt;" style="rounded=1;whiteSpace=wrap;html=1;fontSize=18;strokeWidth=2;align=center;fillColor=#e1d5e7;strokeColor=#9673a6;" parent="1" vertex="1">
          <mxGeometry x="630" y="1065" width="130" height="70" as="geometry" />
        </mxCell>
        <mxCell id="Mdx0Rw6exQIBVTAZ7aJu-130" style="edgeStyle=orthogonalEdgeStyle;rounded=0;orthogonalLoop=1;jettySize=auto;html=1;exitX=0.5;exitY=0;exitDx=0;exitDy=0;entryX=0.5;entryY=1;entryDx=0;entryDy=0;strokeWidth=2;fontSize=18;align=center;" parent="1" source="Mdx0Rw6exQIBVTAZ7aJu-127" target="Mdx0Rw6exQIBVTAZ7aJu-129" edge="1">
          <mxGeometry relative="1" as="geometry" />
        </mxCell>
        <mxCell id="Mdx0Rw6exQIBVTAZ7aJu-127" value="&lt;font style=&quot;font-size: 18px&quot;&gt;Throw stick (M12)&lt;br style=&quot;font-size: 18px&quot;&gt;&lt;/font&gt;" style="rounded=1;whiteSpace=wrap;html=1;fontSize=18;strokeWidth=2;align=center;fillColor=#cce5ff;strokeColor=#36393d;" parent="1" vertex="1">
          <mxGeometry x="630" y="970" width="130" height="50" as="geometry" />
        </mxCell>
        <mxCell id="Mdx0Rw6exQIBVTAZ7aJu-132" style="edgeStyle=orthogonalEdgeStyle;rounded=0;orthogonalLoop=1;jettySize=auto;html=1;exitX=0.5;exitY=0;exitDx=0;exitDy=0;entryX=0.5;entryY=1;entryDx=0;entryDy=0;strokeWidth=2;fontSize=18;align=center;" parent="1" source="Mdx0Rw6exQIBVTAZ7aJu-129" target="Mdx0Rw6exQIBVTAZ7aJu-131" edge="1">
          <mxGeometry relative="1" as="geometry" />
        </mxCell>
        <mxCell id="Mdx0Rw6exQIBVTAZ7aJu-129" value="&lt;font style=&quot;font-size: 18px&quot;&gt;Take Voyager (M13)&lt;br style=&quot;font-size: 18px&quot;&gt;&lt;/font&gt;" style="rounded=1;whiteSpace=wrap;html=1;fontSize=18;strokeWidth=2;align=center;fillColor=#cce5ff;strokeColor=#36393d;" parent="1" vertex="1">
          <mxGeometry x="630" y="860" width="130" height="70" as="geometry" />
        </mxCell>
        <mxCell id="Mdx0Rw6exQIBVTAZ7aJu-134" style="edgeStyle=orthogonalEdgeStyle;rounded=0;orthogonalLoop=1;jettySize=auto;html=1;exitX=0.5;exitY=0;exitDx=0;exitDy=0;entryX=0.5;entryY=1;entryDx=0;entryDy=0;strokeWidth=2;fontSize=18;align=center;" parent="1" source="Mdx0Rw6exQIBVTAZ7aJu-131" target="Mdx0Rw6exQIBVTAZ7aJu-133" edge="1">
          <mxGeometry relative="1" as="geometry" />
        </mxCell>
        <mxCell id="Mdx0Rw6exQIBVTAZ7aJu-131" value="&lt;font style=&quot;font-size: 18px&quot;&gt;Change digital output to open PGN gripper (DO5)&lt;br style=&quot;font-size: 18px&quot;&gt;&lt;/font&gt;" style="rounded=1;whiteSpace=wrap;html=1;fontSize=18;strokeWidth=2;align=center;fillColor=#d5e8d4;strokeColor=#82b366;" parent="1" vertex="1">
          <mxGeometry x="630" y="730" width="130" height="90" as="geometry" />
        </mxCell>
        <mxCell id="Mdx0Rw6exQIBVTAZ7aJu-138" style="edgeStyle=orthogonalEdgeStyle;rounded=0;orthogonalLoop=1;jettySize=auto;html=1;exitX=0.5;exitY=0;exitDx=0;exitDy=0;entryX=0.5;entryY=1;entryDx=0;entryDy=0;strokeWidth=2;fontSize=18;align=center;" parent="1" source="Mdx0Rw6exQIBVTAZ7aJu-133" target="Mdx0Rw6exQIBVTAZ7aJu-137" edge="1">
          <mxGeometry relative="1" as="geometry" />
        </mxCell>
        <mxCell id="Mdx0Rw6exQIBVTAZ7aJu-133" value="&lt;font style=&quot;font-size: 18px&quot;&gt;Take and place Voyager back to charger (M14)&lt;br style=&quot;font-size: 18px&quot;&gt;&lt;/font&gt;" style="rounded=1;whiteSpace=wrap;html=1;fontSize=18;strokeWidth=2;align=center;fillColor=#cce5ff;strokeColor=#36393d;" parent="1" vertex="1">
          <mxGeometry x="630" y="600" width="130" height="90" as="geometry" />
        </mxCell>
        <mxCell id="Mdx0Rw6exQIBVTAZ7aJu-143" style="edgeStyle=orthogonalEdgeStyle;rounded=0;orthogonalLoop=1;jettySize=auto;html=1;exitX=0.5;exitY=0;exitDx=0;exitDy=0;entryX=0.5;entryY=1;entryDx=0;entryDy=0;strokeWidth=2;fontSize=18;align=center;" parent="1" source="Mdx0Rw6exQIBVTAZ7aJu-137" target="Mdx0Rw6exQIBVTAZ7aJu-142" edge="1">
          <mxGeometry relative="1" as="geometry" />
        </mxCell>
        <mxCell id="Mdx0Rw6exQIBVTAZ7aJu-144" style="edgeStyle=orthogonalEdgeStyle;rounded=0;orthogonalLoop=1;jettySize=auto;html=1;exitX=1;exitY=0.5;exitDx=0;exitDy=0;entryX=0;entryY=0.5;entryDx=0;entryDy=0;strokeWidth=2;fontSize=18;align=center;" parent="1" source="Mdx0Rw6exQIBVTAZ7aJu-137" target="Mdx0Rw6exQIBVTAZ7aJu-59" edge="1">
          <mxGeometry relative="1" as="geometry">
            <Array as="points">
              <mxPoint x="800" y="510" />
              <mxPoint x="800" y="100" />
              <mxPoint x="30" y="100" />
              <mxPoint x="30" y="250" />
            </Array>
          </mxGeometry>
        </mxCell>
        <mxCell id="Mdx0Rw6exQIBVTAZ7aJu-137" value="End or not" style="rhombus;whiteSpace=wrap;html=1;strokeWidth=2;fontSize=18;align=center;fillColor=#fad7ac;strokeColor=#b46504;" parent="1" vertex="1">
          <mxGeometry x="630" y="470" width="130" height="80" as="geometry" />
        </mxCell>
        <mxCell id="Mdx0Rw6exQIBVTAZ7aJu-140" value="yes" style="text;html=1;strokeColor=none;fillColor=none;align=left;verticalAlign=middle;whiteSpace=wrap;rounded=0;fontSize=18;" parent="1" vertex="1">
          <mxGeometry x="699" y="436" width="70" height="30" as="geometry" />
        </mxCell>
        <mxCell id="Mdx0Rw6exQIBVTAZ7aJu-162" style="edgeStyle=orthogonalEdgeStyle;rounded=0;orthogonalLoop=1;jettySize=auto;html=1;exitX=0.5;exitY=0;exitDx=0;exitDy=0;endArrow=none;endFill=0;strokeWidth=2;fontSize=18;align=center;" parent="1" source="Mdx0Rw6exQIBVTAZ7aJu-142" edge="1">
          <mxGeometry relative="1" as="geometry">
            <mxPoint x="800" y="350" as="targetPoint" />
            <Array as="points">
              <mxPoint x="695" y="350" />
              <mxPoint x="800" y="350" />
            </Array>
          </mxGeometry>
        </mxCell>
        <mxCell id="Mdx0Rw6exQIBVTAZ7aJu-142" value="&lt;font style=&quot;font-size: 18px&quot;&gt;Change pallet&lt;br style=&quot;font-size: 18px&quot;&gt;&lt;/font&gt;" style="rounded=1;whiteSpace=wrap;html=1;fontSize=18;strokeWidth=2;align=center;fillColor=#fad7ac;strokeColor=#b46504;" parent="1" vertex="1">
          <mxGeometry x="630" y="380" width="130" height="50" as="geometry" />
        </mxCell>
        <mxCell id="Mdx0Rw6exQIBVTAZ7aJu-145" value="no" style="text;html=1;strokeColor=none;fillColor=none;align=left;verticalAlign=middle;whiteSpace=wrap;rounded=0;fontSize=18;" parent="1" vertex="1">
          <mxGeometry x="760" y="470" width="30" height="30" as="geometry" />
        </mxCell>
        <mxCell id="Mdx0Rw6exQIBVTAZ7aJu-156" style="edgeStyle=orthogonalEdgeStyle;rounded=0;orthogonalLoop=1;jettySize=auto;html=1;exitX=0.5;exitY=0;exitDx=0;exitDy=0;entryX=0.5;entryY=1;entryDx=0;entryDy=0;endArrow=classic;endFill=1;strokeWidth=2;fontSize=18;align=center;" parent="1" source="Mdx0Rw6exQIBVTAZ7aJu-147" target="Mdx0Rw6exQIBVTAZ7aJu-155" edge="1">
          <mxGeometry relative="1" as="geometry" />
        </mxCell>
        <mxCell id="Mdx0Rw6exQIBVTAZ7aJu-147" value="&lt;font style=&quot;font-size: 18px&quot;&gt;Error handling process&lt;br style=&quot;font-size: 18px&quot;&gt;&lt;/font&gt;" style="rounded=1;whiteSpace=wrap;html=1;fontSize=18;strokeWidth=2;align=center;fillColor=#fad7ac;strokeColor=#b46504;" parent="1" vertex="1">
          <mxGeometry x="630" y="250" width="130" height="60" as="geometry" />
        </mxCell>
        <mxCell id="Mdx0Rw6exQIBVTAZ7aJu-150" value="error" style="text;html=1;strokeColor=none;fillColor=none;align=left;verticalAlign=middle;whiteSpace=wrap;rounded=0;fontSize=18;" parent="1" vertex="1">
          <mxGeometry x="180" y="665" width="40" height="30" as="geometry" />
        </mxCell>
        <mxCell id="Mdx0Rw6exQIBVTAZ7aJu-151" value="error" style="text;html=1;strokeColor=none;fillColor=none;align=left;verticalAlign=middle;whiteSpace=wrap;rounded=0;fontSize=18;" parent="1" vertex="1">
          <mxGeometry x="380" y="830" width="40" height="30" as="geometry" />
        </mxCell>
        <mxCell id="Mdx0Rw6exQIBVTAZ7aJu-152" value="error" style="text;html=1;strokeColor=none;fillColor=none;align=left;verticalAlign=middle;whiteSpace=wrap;rounded=0;fontSize=18;" parent="1" vertex="1">
          <mxGeometry x="564" y="445" width="40" height="30" as="geometry" />
        </mxCell>
        <mxCell id="Mdx0Rw6exQIBVTAZ7aJu-163" style="edgeStyle=orthogonalEdgeStyle;rounded=0;orthogonalLoop=1;jettySize=auto;html=1;exitX=0.5;exitY=0;exitDx=0;exitDy=0;endArrow=none;endFill=0;strokeWidth=2;fontSize=18;align=center;" parent="1" source="Mdx0Rw6exQIBVTAZ7aJu-155" edge="1">
          <mxGeometry relative="1" as="geometry">
            <mxPoint x="695.0588235294117" y="100" as="targetPoint" />
          </mxGeometry>
        </mxCell>
        <mxCell id="Mdx0Rw6exQIBVTAZ7aJu-155" value="&lt;font style=&quot;font-size: 18px&quot;&gt;Modify related setting&lt;br style=&quot;font-size: 18px&quot;&gt;&lt;/font&gt;" style="rounded=1;whiteSpace=wrap;html=1;fontSize=18;strokeWidth=2;align=center;fillColor=#fad7ac;strokeColor=#b46504;" parent="1" vertex="1">
          <mxGeometry x="630" y="150" width="130" height="60" as="geometry" />
        </mxCell>
        <mxCell id="yO3iKfEKuUUZXNcsltwW-6" style="edgeStyle=orthogonalEdgeStyle;rounded=0;orthogonalLoop=1;jettySize=auto;html=1;exitX=0.5;exitY=0;exitDx=0;exitDy=0;entryX=0.5;entryY=1;entryDx=0;entryDy=0;strokeWidth=2;" edge="1" parent="1" source="yO3iKfEKuUUZXNcsltwW-4" target="Mdx0Rw6exQIBVTAZ7aJu-89">
          <mxGeometry relative="1" as="geometry" />
        </mxCell>
        <mxCell id="yO3iKfEKuUUZXNcsltwW-4" value="&lt;font style=&quot;font-size: 18px&quot;&gt;Start and connect vision system (C3)&lt;br style=&quot;font-size: 18px&quot;&gt;&lt;/font&gt;" style="rounded=1;whiteSpace=wrap;html=1;fontSize=18;strokeWidth=2;align=center;fillColor=#e1d5e7;strokeColor=#9673a6;" vertex="1" parent="1">
          <mxGeometry x="250" y="580" width="130" height="70" as="geometry" />
        </mxCell>
        <mxCell id="yO3iKfEKuUUZXNcsltwW-17" style="edgeStyle=orthogonalEdgeStyle;rounded=0;orthogonalLoop=1;jettySize=auto;html=1;exitX=1;exitY=0.5;exitDx=0;exitDy=0;entryX=0.5;entryY=0;entryDx=0;entryDy=0;strokeWidth=2;" edge="1" parent="1" source="yO3iKfEKuUUZXNcsltwW-10" target="Mdx0Rw6exQIBVTAZ7aJu-94">
          <mxGeometry relative="1" as="geometry" />
        </mxCell>
        <mxCell id="yO3iKfEKuUUZXNcsltwW-10" value="&lt;font style=&quot;font-size: 18px&quot;&gt;Shut down vision system (C4)&lt;br style=&quot;font-size: 18px&quot;&gt;&lt;/font&gt;" style="rounded=1;whiteSpace=wrap;html=1;fontSize=18;strokeWidth=2;align=center;fillColor=#e1d5e7;strokeColor=#9673a6;" vertex="1" parent="1">
          <mxGeometry x="250" y="120" width="130" height="65" as="geometry" />
        </mxCell>
        <mxCell id="yO3iKfEKuUUZXNcsltwW-16" style="edgeStyle=orthogonalEdgeStyle;rounded=0;orthogonalLoop=1;jettySize=auto;html=1;exitX=0.5;exitY=0;exitDx=0;exitDy=0;entryX=0.5;entryY=1;entryDx=0;entryDy=0;strokeWidth=2;" edge="1" parent="1" source="yO3iKfEKuUUZXNcsltwW-14" target="Mdx0Rw6exQIBVTAZ7aJu-99">
          <mxGeometry relative="1" as="geometry" />
        </mxCell>
        <mxCell id="yO3iKfEKuUUZXNcsltwW-14" value="&lt;font style=&quot;font-size: 18px&quot;&gt;Start Voyager (M7)&lt;br style=&quot;font-size: 18px&quot;&gt;&lt;/font&gt;" style="rounded=1;whiteSpace=wrap;html=1;fontSize=18;strokeWidth=2;align=center;fillColor=#cce5ff;strokeColor=#36393d;" vertex="1" parent="1">
          <mxGeometry x="250" y="355" width="130" height="50" as="geometry" />
        </mxCell>
      </root>
    </mxGraphModel>
  </diagram>
</mxfile>
